<?xml version="1.0" encoding="utf-8"?>
<!-- Generator: Adobe Illustrator 23.0.1, SVG Export Plug-In . SVG Version: 6.00 Build 0)  -->
<svg version="1.1" id="Calque_1" xmlns="http://www.w3.org/2000/svg" xmlns:xlink="http://www.w3.org/1999/xlink" x="0px" y="0px"
	 viewBox="0 0 589.2 616.5" style="enable-background:new 0 0 589.2 616.5;" xml:space="preserve">
<style type="text/css">
	.st0{fill:#010101;}
	.st1{fill:none;stroke:#010101;stroke-width:25;stroke-linecap:round;}
</style>
<title>logo</title>
<path class="st0" d="M555.3,361.6l-89-97.8c-17.7-17.7-46.4-17.6-64.1,0.1c-5.5,5.4-9.4,12.2-11.5,19.6c-20-15.1-48.4-11.2-63.6,8.7
	c-3.4,4.5-5.9,9.5-7.5,14.9c-18.1-13.7-43.5-12-59.6,4.1c-5.3,5.3-9.2,11.9-11.4,19.1l-42-42c-17.7-17.7-46.4-17.7-64.1,0
	c-17.7,17.7-17.7,46.4,0,64.1L304,513.7l-95.6,15c-26,3.8-45.2,26-45.3,52.3c0,19.6,15.9,35.5,35.5,35.5h223.3
	c34.6,0.1,67.7-13.6,92.1-38.1l37.2-37.2C600.3,492,602.1,413,555.3,361.6L555.3,361.6z M534.4,524.4l-37.3,37.2
	c-19.9,20-47.1,31.3-75.3,31.2H198.5c-6.5,0-11.8-5.3-11.8-11.8c0.1-14.5,10.8-26.8,25.2-28.9l118.8-18.6c6.5-1,10.9-7.1,9.9-13.5
	c-0.4-2.5-1.6-4.8-3.3-6.5L159.5,335.8c-8.3-8.6-8-22.3,0.7-30.6c8.4-8,21.6-8,30,0l118.5,118.5c4.6,4.6,12.1,4.6,16.7,0
	c4.6-4.6,4.6-12.1,0-16.7l-48.4-48.4c-8.1-8.8-7.5-22.5,1.3-30.6c8.3-7.6,21.1-7.6,29.4,0l48.4,48.4c4.6,4.6,12.1,4.6,16.7,0
	c4.6-4.6,4.6-12.1,0-16.7l-24.7-24.8c-8.3-8.6-8-22.3,0.6-30.6c8.4-8,21.6-8,30,0l24.8,24.9l0,0l0,0l0,0l0,0l0,0l0,0
	c4.8,4.4,12.3,4.1,16.7-0.8c4.2-4.6,4.1-11.7-0.2-16.2l-1-1c-8.4-8.4-8.4-22,0-30.5c0,0,0.1-0.1,0.1-0.1c8.4-8.4,22.1-8.4,30.1-0.4
	l88.6,97.4C576,419.5,574.6,484.2,534.4,524.4z"/>
<path class="st0" d="M271.8,276.8c-24.1-53.6-87.1-77.5-140.7-53.4s-77.5,87.1-53.4,140.7c10.7,23.8,29.7,42.8,53.5,53.4
	c5.9,2.8,13,0.4,15.8-5.5c2.8-5.9,0.4-13-5.5-15.8c-0.2-0.1-0.4-0.2-0.5-0.2c-41.7-18.7-60.3-67.7-41.6-109.4
	c18.7-41.7,67.7-60.3,109.4-41.6c18.5,8.3,33.3,23.1,41.6,41.6c2.6,6,9.5,8.8,15.5,6.3c6-2.6,8.8-9.5,6.3-15.5
	C272,277.1,271.9,276.9,271.8,276.8L271.8,276.8z"/>
<g id="Groupe_1">
	<line id="Ligne_1" class="st1" x1="6.8" y1="7.5" x2="6.8" y2="616.5"/>
	<line id="Ligne_2" class="st1" x1="7.5" y1="7.5" x2="258.6" y2="7.5"/>
	<line id="Ligne_3" class="st1" x1="7.5" y1="168.5" x2="200.7" y2="168.5"/>
</g>
<g id="Groupe_1-2">
	<line id="Ligne_1-2" class="st1" x1="581.7" y1="7.5" x2="581.7" y2="295.5"/>
	<line id="Ligne_2-2" class="st1" x1="581.7" y1="7.5" x2="330.6" y2="7.5"/>
</g>
</svg>
