<svg xmlns="http://www.w3.org/2000/svg" width="64" height="73" viewBox="0 0 64 73">
  <g id="Polygone_1" data-name="Polygone 1" transform="translate(60 4) rotate(90)" fill="none" stroke-linecap="round" stroke-linejoin="round">
    <path d="M32.5,0,65,56H0Z" stroke="none"/>
    <path d="M 32.5 0 L 0 56 L 65 56 L 32.5 0 M 32.5 -4 C 33.92584991455078 -4 35.24388122558594 -3.241001129150391 35.95958709716797 -2.007801055908203 L 68.45958709716797 53.9921989440918 C 69.17771911621094 55.22958755493164 69.1802978515625 56.75629425048828 68.46635437011719 57.99609375 C 67.75241088867188 59.23590469360352 66.43067169189453 60 65 60 L 0 60 C -1.430671691894531 60 -2.752410888671875 59.23590469360352 -3.466354370117188 57.99609375 C -4.1802978515625 56.75629425048828 -4.177719116210938 55.22958755493164 -3.459587097167969 53.9921989440918 L 29.04041290283203 -2.007801055908203 C 29.75611877441406 -3.241001129150391 31.07415390014648 -4 32.5 -4 Z" stroke="none" fill="#0e0e0e"/>
  </g>
</svg>
